# xmcd
#
# Track frame offsets: 
#        150
#        17555
#        32489
#        45630
#        59210
#        83992
#        99059
#        112922
#        126105
#        128255
#        149284
#        168837
#
# Disc length: 2458 seconds
#
# Revision: 1
# Processed by: cddbd v1.5.2PL0 Copyright (c) Steve Scherf et al.
# Submitted via: ExactAudioCopy v0.99pb4
#
DISCID=8e09980c
DTITLE=Sam Baker - Pretty World
DYEAR=2007
DGENRE=Country
TTITLE0=Juarez
TTITLE1=Orphan
TTITLE2=Slots
TTITLE3=Pretty World
TTITLE4=Odessa
TTITLE5=Sweetly Undone
TTITLE6=Psychic
TTITLE7=Boxes
TTITLE8=Prelude
TTITLE9=Broken Fingers
TTITLE10=Days
TTITLE11=Pretty World Recessional
EXTD=
EXTT0=
EXTT1=
EXTT2=
EXTT3=
EXTT4=
EXTT5=
EXTT6=
EXTT7=
EXTT8=
EXTT9=
EXTT10=
EXTT11=
PLAYORDER=
